<mxfile host="Electron" modified="2024-01-28T20:27:08.275Z" agent="Mozilla/5.0 (Macintosh; Intel Mac OS X 10_15_7) AppleWebKit/537.36 (KHTML, like Gecko) draw.io/22.1.2 Chrome/114.0.5735.289 Electron/25.9.4 Safari/537.36" etag="y-_wyE_-8Jd8HJc-Yxj4" version="22.1.2" type="device">
  <diagram name="Page-1" id="HJA8yLRVBJEQP20IWrum">
    <mxGraphModel dx="1063" dy="878" grid="1" gridSize="10" guides="1" tooltips="1" connect="1" arrows="1" fold="1" page="1" pageScale="1" pageWidth="827" pageHeight="1169" math="0" shadow="0">
      <root>
        <mxCell id="0" />
        <mxCell id="1" parent="0" />
        <mxCell id="7TiqcWHem0mOnSq_I0lU-10" style="rounded=0;orthogonalLoop=1;jettySize=auto;html=1;exitX=1;exitY=1;exitDx=0;exitDy=0;entryX=0;entryY=0;entryDx=0;entryDy=0;strokeWidth=2;" edge="1" parent="1" source="7TiqcWHem0mOnSq_I0lU-1" target="7TiqcWHem0mOnSq_I0lU-5">
          <mxGeometry relative="1" as="geometry" />
        </mxCell>
        <mxCell id="7TiqcWHem0mOnSq_I0lU-1" value="(row-1,col-1)" style="whiteSpace=wrap;html=1;aspect=fixed;fillColor=#dae8fc;strokeColor=#6c8ebf;" vertex="1" parent="1">
          <mxGeometry x="240" y="280" width="80" height="80" as="geometry" />
        </mxCell>
        <mxCell id="7TiqcWHem0mOnSq_I0lU-17" style="edgeStyle=orthogonalEdgeStyle;rounded=0;orthogonalLoop=1;jettySize=auto;html=1;exitX=1;exitY=0.5;exitDx=0;exitDy=0;entryX=0;entryY=0.5;entryDx=0;entryDy=0;strokeWidth=2;" edge="1" parent="1" source="7TiqcWHem0mOnSq_I0lU-2" target="7TiqcWHem0mOnSq_I0lU-5">
          <mxGeometry relative="1" as="geometry" />
        </mxCell>
        <mxCell id="7TiqcWHem0mOnSq_I0lU-2" value="(row,col-1)" style="whiteSpace=wrap;html=1;aspect=fixed;fillColor=#dae8fc;strokeColor=#6c8ebf;" vertex="1" parent="1">
          <mxGeometry x="240" y="400" width="80" height="80" as="geometry" />
        </mxCell>
        <mxCell id="7TiqcWHem0mOnSq_I0lU-11" style="edgeStyle=orthogonalEdgeStyle;rounded=0;orthogonalLoop=1;jettySize=auto;html=1;exitX=0.5;exitY=1;exitDx=0;exitDy=0;entryX=0.5;entryY=0;entryDx=0;entryDy=0;strokeWidth=2;" edge="1" parent="1" source="7TiqcWHem0mOnSq_I0lU-3" target="7TiqcWHem0mOnSq_I0lU-5">
          <mxGeometry relative="1" as="geometry" />
        </mxCell>
        <mxCell id="7TiqcWHem0mOnSq_I0lU-3" value="(row-1,col)" style="whiteSpace=wrap;html=1;aspect=fixed;fillColor=#dae8fc;strokeColor=#6c8ebf;" vertex="1" parent="1">
          <mxGeometry x="360" y="280" width="80" height="80" as="geometry" />
        </mxCell>
        <mxCell id="7TiqcWHem0mOnSq_I0lU-12" style="rounded=0;orthogonalLoop=1;jettySize=auto;html=1;exitX=0;exitY=1;exitDx=0;exitDy=0;entryX=1;entryY=0;entryDx=0;entryDy=0;strokeWidth=2;" edge="1" parent="1" source="7TiqcWHem0mOnSq_I0lU-4" target="7TiqcWHem0mOnSq_I0lU-5">
          <mxGeometry relative="1" as="geometry" />
        </mxCell>
        <mxCell id="7TiqcWHem0mOnSq_I0lU-4" value="(row-1,col+1)" style="whiteSpace=wrap;html=1;aspect=fixed;fillColor=#dae8fc;strokeColor=#6c8ebf;" vertex="1" parent="1">
          <mxGeometry x="480" y="280" width="80" height="80" as="geometry" />
        </mxCell>
        <mxCell id="7TiqcWHem0mOnSq_I0lU-5" value="Current:&lt;br&gt;(row,col)" style="whiteSpace=wrap;html=1;aspect=fixed;fillColor=#f8cecc;strokeColor=#b85450;" vertex="1" parent="1">
          <mxGeometry x="360" y="400" width="80" height="80" as="geometry" />
        </mxCell>
        <mxCell id="7TiqcWHem0mOnSq_I0lU-13" style="edgeStyle=orthogonalEdgeStyle;rounded=0;orthogonalLoop=1;jettySize=auto;html=1;exitX=0;exitY=0.5;exitDx=0;exitDy=0;entryX=1;entryY=0.5;entryDx=0;entryDy=0;strokeWidth=2;" edge="1" parent="1" source="7TiqcWHem0mOnSq_I0lU-6" target="7TiqcWHem0mOnSq_I0lU-5">
          <mxGeometry relative="1" as="geometry" />
        </mxCell>
        <mxCell id="7TiqcWHem0mOnSq_I0lU-6" value="(row,col+1)" style="whiteSpace=wrap;html=1;aspect=fixed;fillColor=#dae8fc;strokeColor=#6c8ebf;" vertex="1" parent="1">
          <mxGeometry x="480" y="400" width="80" height="80" as="geometry" />
        </mxCell>
        <mxCell id="7TiqcWHem0mOnSq_I0lU-15" style="edgeStyle=orthogonalEdgeStyle;rounded=0;orthogonalLoop=1;jettySize=auto;html=1;exitX=0.5;exitY=0;exitDx=0;exitDy=0;entryX=0.5;entryY=1;entryDx=0;entryDy=0;strokeWidth=2;" edge="1" parent="1" source="7TiqcWHem0mOnSq_I0lU-7" target="7TiqcWHem0mOnSq_I0lU-5">
          <mxGeometry relative="1" as="geometry" />
        </mxCell>
        <mxCell id="7TiqcWHem0mOnSq_I0lU-7" value="(row+1,col)" style="whiteSpace=wrap;html=1;aspect=fixed;fillColor=#dae8fc;strokeColor=#6c8ebf;" vertex="1" parent="1">
          <mxGeometry x="360" y="520" width="80" height="80" as="geometry" />
        </mxCell>
        <mxCell id="7TiqcWHem0mOnSq_I0lU-16" style="rounded=0;orthogonalLoop=1;jettySize=auto;html=1;exitX=1;exitY=0;exitDx=0;exitDy=0;entryX=0;entryY=1;entryDx=0;entryDy=0;strokeWidth=2;" edge="1" parent="1" source="7TiqcWHem0mOnSq_I0lU-8" target="7TiqcWHem0mOnSq_I0lU-5">
          <mxGeometry relative="1" as="geometry" />
        </mxCell>
        <mxCell id="7TiqcWHem0mOnSq_I0lU-8" value="(row+1,col-1)" style="whiteSpace=wrap;html=1;aspect=fixed;fillColor=#dae8fc;strokeColor=#6c8ebf;" vertex="1" parent="1">
          <mxGeometry x="240" y="520" width="80" height="80" as="geometry" />
        </mxCell>
        <mxCell id="7TiqcWHem0mOnSq_I0lU-14" style="rounded=0;orthogonalLoop=1;jettySize=auto;html=1;exitX=0;exitY=0;exitDx=0;exitDy=0;entryX=1;entryY=1;entryDx=0;entryDy=0;strokeWidth=2;" edge="1" parent="1" source="7TiqcWHem0mOnSq_I0lU-9" target="7TiqcWHem0mOnSq_I0lU-5">
          <mxGeometry relative="1" as="geometry" />
        </mxCell>
        <mxCell id="7TiqcWHem0mOnSq_I0lU-9" value="(row+1,col+1)" style="whiteSpace=wrap;html=1;aspect=fixed;fillColor=#dae8fc;strokeColor=#6c8ebf;" vertex="1" parent="1">
          <mxGeometry x="480" y="520" width="80" height="80" as="geometry" />
        </mxCell>
      </root>
    </mxGraphModel>
  </diagram>
</mxfile>
